<svg xmlns="http://www.w3.org/2000/svg" width="1100" height="560" viewBox="0 0 1100 560">
<rect width="100%" height="100%" fill="#FCFCFF"/>
<text x="550.0" y="38" text-anchor="middle" font-size="24" font-weight="700" fill="#1D1D2C">가중치 시나리오별 등급 분포</text>
<line x1="90" y1="445" x2="1060" y2="445" stroke="#2B2D42"/>
<line x1="90" y1="70" x2="90" y2="445" stroke="#2B2D42"/>
<rect x="114.9" y="406.1" width="20.8" height="38.9" rx="4" fill="#6D5EF7"/>
<rect x="140.9" y="336.8" width="20.8" height="108.2" rx="4" fill="#00A6ED"/>
<rect x="166.9" y="276.2" width="20.8" height="168.8" rx="4" fill="#00C49A"/>
<rect x="192.9" y="184.6" width="20.8" height="260.4" rx="4" fill="#FF6B6B"/>
<text x="159.3" y="484" text-anchor="end" font-size="12" fill="#343A40" transform="rotate(-30 159.3 484)">현재 공식 가중치</text>
<rect x="253.5" y="391.3" width="20.8" height="53.7" rx="4" fill="#6D5EF7"/>
<rect x="279.5" y="307.6" width="20.8" height="137.4" rx="4" fill="#00A6ED"/>
<rect x="305.5" y="307.1" width="20.8" height="137.9" rx="4" fill="#00C49A"/>
<rect x="331.5" y="197.5" width="20.8" height="247.5" rx="4" fill="#FF6B6B"/>
<text x="297.9" y="484" text-anchor="end" font-size="12" fill="#343A40" transform="rotate(-30 297.9 484)">성장확률 강화</text>
<rect x="392.1" y="410.3" width="20.8" height="34.7" rx="4" fill="#6D5EF7"/>
<rect x="418.1" y="361.7" width="20.8" height="83.3" rx="4" fill="#00A6ED"/>
<rect x="444.1" y="304.4" width="20.8" height="140.6" rx="4" fill="#00C49A"/>
<rect x="470.0" y="127.2" width="20.8" height="317.8" rx="4" fill="#FF6B6B"/>
<text x="436.4" y="484" text-anchor="end" font-size="12" fill="#343A40" transform="rotate(-30 436.4 484)">Growth Alpha 강화</text>
<rect x="530.7" y="419.1" width="20.8" height="25.9" rx="4" fill="#6D5EF7"/>
<rect x="556.6" y="360.3" width="20.8" height="84.7" rx="4" fill="#00A6ED"/>
<rect x="582.6" y="271.5" width="20.8" height="173.5" rx="4" fill="#00C49A"/>
<rect x="608.6" y="152.6" width="20.8" height="292.4" rx="4" fill="#FF6B6B"/>
<text x="575.0" y="484" text-anchor="end" font-size="12" fill="#343A40" transform="rotate(-30 575.0 484)">리뷰 성장 강화</text>
<rect x="669.2" y="391.8" width="20.8" height="53.2" rx="4" fill="#6D5EF7"/>
<rect x="695.2" y="307.6" width="20.8" height="137.4" rx="4" fill="#00A6ED"/>
<rect x="721.2" y="318.3" width="20.8" height="126.7" rx="4" fill="#00C49A"/>
<rect x="747.2" y="186.0" width="20.8" height="259.0" rx="4" fill="#FF6B6B"/>
<text x="713.6" y="484" text-anchor="end" font-size="12" fill="#343A40" transform="rotate(-30 713.6 484)">운영 역량 강화</text>
<rect x="807.8" y="406.6" width="20.8" height="38.4" rx="4" fill="#6D5EF7"/>
<rect x="833.8" y="305.3" width="20.8" height="139.7" rx="4" fill="#00A6ED"/>
<rect x="859.8" y="240.5" width="20.8" height="204.5" rx="4" fill="#00C49A"/>
<rect x="885.7" y="251.2" width="20.8" height="193.8" rx="4" fill="#FF6B6B"/>
<text x="852.1" y="484" text-anchor="end" font-size="12" fill="#343A40" transform="rotate(-30 852.1 484)">안정성 강화</text>
<rect x="946.4" y="407.5" width="20.8" height="37.5" rx="4" fill="#6D5EF7"/>
<rect x="972.4" y="341.8" width="20.8" height="103.2" rx="4" fill="#00A6ED"/>
<rect x="998.3" y="276.2" width="20.8" height="168.8" rx="4" fill="#00C49A"/>
<rect x="1024.3" y="178.1" width="20.8" height="266.9" rx="4" fill="#FF6B6B"/>
<text x="990.7" y="484" text-anchor="end" font-size="12" fill="#343A40" transform="rotate(-30 990.7 484)">서울 상권 적합도 강화</text>
<rect x="790" y="52" width="14" height="14" rx="3" fill="#6D5EF7"/>
<text x="811" y="64" font-size="13" fill="#343A40">A</text>
<rect x="860" y="52" width="14" height="14" rx="3" fill="#00A6ED"/>
<text x="881" y="64" font-size="13" fill="#343A40">B</text>
<rect x="930" y="52" width="14" height="14" rx="3" fill="#00C49A"/>
<text x="951" y="64" font-size="13" fill="#343A40">C</text>
<rect x="1000" y="52" width="14" height="14" rx="3" fill="#FF6B6B"/>
<text x="1021" y="64" font-size="13" fill="#343A40">D</text>
</svg>