<svg xmlns="http://www.w3.org/2000/svg" width="1100" height="430" viewBox="0 0 1100 430">
<rect width="100%" height="100%" fill="#FCFCFF"/>
<text x="550.0" y="42" text-anchor="middle" font-size="25" font-weight="700" fill="#1D1D2C">불균형 진단 핵심 지표</text>
<rect x="70" y="95" width="315" height="118" rx="8" fill="white" stroke="#6D5EF7" stroke-width="2.2"/>
<text x="90" y="129" font-size="15" font-weight="700" fill="#343A40">원본 최대 카테고리 비중</text>
<text x="90" y="167" font-size="28" font-weight="800" fill="#6D5EF7">64.5%</text>
<text x="90" y="194" font-size="13" fill="#6C757D">백반·죽·국수 집중</text>
<rect x="392" y="95" width="315" height="118" rx="8" fill="white" stroke="#00A6ED" stroke-width="2.2"/>
<text x="412" y="129" font-size="15" font-weight="700" fill="#343A40">기존 Top100 최대 카테고리 비중</text>
<text x="412" y="167" font-size="28" font-weight="800" fill="#00A6ED">92.0%</text>
<text x="412" y="194" font-size="13" fill="#6C757D">편중 심화</text>
<rect x="714" y="95" width="315" height="118" rx="8" fill="white" stroke="#00C49A" stroke-width="2.2"/>
<text x="734" y="129" font-size="15" font-weight="700" fill="#343A40">보정 Top100 최대 카테고리 비중</text>
<text x="734" y="167" font-size="28" font-weight="800" fill="#00C49A">84.0%</text>
<text x="734" y="194" font-size="13" fill="#6C757D">일부 완화</text>
<rect x="70" y="240" width="315" height="118" rx="8" fill="white" stroke="#FFB000" stroke-width="2.2"/>
<text x="90" y="274" font-size="15" font-weight="700" fill="#343A40">균형형 최대 카테고리 비중</text>
<text x="90" y="312" font-size="28" font-weight="800" fill="#FFB000">42.9%</text>
<text x="90" y="339" font-size="13" fill="#6C757D">발표용 보조 추천</text>
<rect x="392" y="240" width="315" height="118" rx="8" fill="white" stroke="#FF6B6B" stroke-width="2.2"/>
<text x="412" y="274" font-size="15" font-weight="700" fill="#343A40">기존→보정 신규 Top100</text>
<text x="412" y="312" font-size="28" font-weight="800" fill="#FF6B6B">8개</text>
<text x="412" y="339" font-size="13" fill="#6C757D">숨은 후보 발굴</text>
<rect x="714" y="240" width="315" height="118" rx="8" fill="white" stroke="#D65DB1" stroke-width="2.2"/>
<text x="734" y="274" font-size="15" font-weight="700" fill="#343A40">기존→보정 Top100 유지</text>
<text x="734" y="312" font-size="28" font-weight="800" fill="#D65DB1">92개</text>
<text x="734" y="339" font-size="13" fill="#6C757D">기존 안정성 유지</text>
</svg>