<svg xmlns="http://www.w3.org/2000/svg" width="1100" height="540" viewBox="0 0 1100 540">
<rect width="100%" height="100%" fill="#f8fafc"/>
<text x="550.0" y="38" text-anchor="middle" font-family="Arial" font-size="24" font-weight="800" fill="#0f172a">Category Sentiment by Growth Label</text>
<line x1="90" y1="430" x2="940" y2="430" stroke="#e2e8f0" stroke-width="2"/>
<text x="231.67" y="460" text-anchor="middle" font-family="Arial" font-size="14" fill="#0f172a">백반·죽·국수</text>
<rect x="137.22" y="84.92" width="77.44" height="345.08" fill="#7c3aed" rx="5"/>
<text x="175.94" y="77.92" text-anchor="middle" font-family="Arial" font-size="12" fill="#0f172a">0.675</text>
<rect x="231.67" y="76.00" width="77.44" height="354.00" fill="#16a34a" rx="5"/>
<text x="270.39" y="69.00" text-anchor="middle" font-family="Arial" font-size="12" fill="#0f172a">0.692</text>
<text x="515.00" y="460" text-anchor="middle" font-family="Arial" font-size="14" fill="#0f172a">치킨</text>
<rect x="420.56" y="93.06" width="77.44" height="336.94" fill="#7c3aed" rx="5"/>
<text x="459.28" y="86.06" text-anchor="middle" font-family="Arial" font-size="12" fill="#0f172a">0.659</text>
<rect x="515.00" y="92.96" width="77.44" height="337.04" fill="#16a34a" rx="5"/>
<text x="553.72" y="85.96" text-anchor="middle" font-family="Arial" font-size="12" fill="#0f172a">0.659</text>
<text x="798.33" y="460" text-anchor="middle" font-family="Arial" font-size="14" fill="#0f172a">피자</text>
<rect x="703.89" y="83.23" width="77.44" height="346.77" fill="#7c3aed" rx="5"/>
<text x="742.61" y="76.23" text-anchor="middle" font-family="Arial" font-size="12" fill="#0f172a">0.678</text>
<rect x="798.33" y="100.82" width="77.44" height="329.18" fill="#16a34a" rx="5"/>
<text x="837.06" y="93.82" text-anchor="middle" font-family="Arial" font-size="12" fill="#0f172a">0.644</text>
<rect x="960" y="64" width="16" height="16" fill="#7c3aed" rx="3"/>
<text x="984" y="77" font-family="Arial" font-size="14" fill="#0f172a">Non-growth</text>
<rect x="960" y="90" width="16" height="16" fill="#16a34a" rx="3"/>
<text x="984" y="103" font-family="Arial" font-size="14" fill="#0f172a">Growth</text>
</svg>